<svg width="200" height="64" viewBox="0 0 200 64" fill="none" xmlns="http://www.w3.org/2000/svg">
  <!-- Umbrella Logo - White version for dark backgrounds -->

  <!-- Icon -->
  <circle cx="32" cy="32" r="30" fill="#FFFFFF" opacity="0.1"/>
  <path d="M32 12C18 12 12 20 12 28c0 2 1 4 3 4s3-2 3-4c0-4 2-8 6-8s6 4 6 8c0 2 1 4 2 4s2-2 2-4c0-4 2-8 6-8s6 4 6 8c0 2 1 4 3 4s3-2 3-4c0-8-6-16-20-16z" fill="#FFFFFF"/>
  <rect x="30" y="28" width="4" height="24" rx="2" fill="#FFFFFF"/>
  <path d="M34 48c0 2-2 4-4 4s-4-2-4-4h8z" fill="#FFFFFF"/>

  <!-- Text -->
  <text x="76" y="40" font-family="Inter, sans-serif" font-size="28" font-weight="700" fill="#FFFFFF">Umbrella</text>
</svg>
